<?xml version="1.0" encoding="utf-8"?>
<!-- Generator: Adobe Illustrator 25.2.3, SVG Export Plug-In . SVG Version: 6.00 Build 0)  -->
<svg version="1.1" id="Layer_1" xmlns="http://www.w3.org/2000/svg" xmlns:xlink="http://www.w3.org/1999/xlink" x="0px" y="0px"
	 viewBox="0 0 800 800" style="enable-background:new 0 0 800 800;" xml:space="preserve">
<style type="text/css">
	.st0{fill:#666666;}
	.st1{fill:#FFFFFF;}
	.st2{fill:none;}
	.st3{font-family:'MyriadPro-Regular';}
	.st4{font-size:109px;}
	.st5{font-size:48px;}
</style>
<g>
	<path class="st0" d="M631.25,546h-447.5c-20.3,0-36.75-16.45-36.75-36.75v-236.5c0-20.3,16.45-36.75,36.75-36.75H280h351.25
		c20.3,0,36.75,16.45,36.75,36.75v236.5C668,529.55,651.55,546,631.25,546z"/>
</g>
<path class="st0" d="M332.5,139.5c0,0-54-4-53.5,96.5s258,0,258,0s7.5-96.54-48-96.52S332.5,139.5,332.5,139.5z"/>
<rect x="337" y="173" class="st1" width="138" height="37"/>
<circle class="st1" cx="406.5" cy="391.5" r="115.5"/>
<circle class="st0" cx="406" cy="391" r="77"/>
<rect x="385" y="351" class="st2" width="79" height="81"/>
<text transform="matrix(1 0 0 1 385 428.3887)" class="st1 st3 st4">?</text>
<rect x="182" y="596" class="st2" width="459" height="137"/>
<text transform="matrix(1 0 0 1 351.1167 630.0801)"><tspan x="0" y="0" class="st0 st3 st5">Photo</tspan><tspan x="-57.33" y="57.6" class="st0 st3 st5">Unavailable</tspan></text>
</svg>
